<svg viewBox="0 0 35 34" class="ico_type_pickup">
<g opacity="0.15" filter="url(#ico_type_pickup_svg__filter0_f_4010_171128)">
<ellipse cx="17.441" cy="29.3" rx="13.941" ry="2.145" fill="#04A"></ellipse></g><g filter="url(#ico_type_pickup_svg__filter1_i_4010_171128)">
<path d="M5.45 7.573a3.217 3.217 0 013.205-2.938H26.35a3.217 3.217 0 013.205 2.938l1.585 18.231a3.217 3.217 0 01-3.205 3.496H7.07a3.217 3.217 0 01-3.205-3.496L5.45 7.574z" fill="url(#ico_type_pickup_svg__paint0_linear_4010_171128)"></path></g><g filter="url(#ico_type_pickup_svg__filter2_d_4010_171128)"><path d="M18.628 12.726a.536.536 0 01.534-.584h6.43c.277 0 .509.211.534.487l.975 10.724a.536.536 0 01-.534.585h-6.43a.536.536 0 01-.535-.488l-.974-10.724z" fill="#fff"></path></g><path d="M20.72 14.823h3.753M20.72 17.504h4.289" stroke="#DFE7EE" stroke-width="1.072" stroke-linecap="round"></path><path opacity="0.2" d="M12.09 9.104a1.082 1.082 0 111.681-1.36l1.535 2.066a.976.976 0 01-1.517 1.227L12.09 9.104z" fill="url(#ico_type_pickup_svg__paint1_linear_4010_171128)"></path><path opacity="0.2" d="M21.312 9.158a1.082 1.082 0 111.681-1.36l1.535 2.067a.977.977 0 01-1.517 1.227l-1.699-1.934z" fill="url(#ico_type_pickup_svg__paint2_linear_4010_171128)"></path><g filter="url(#ico_type_pickup_svg__filter3_i_4010_171128)"><path d="M13.947 8.335a1.066 1.066 0 11-2.132 0 1.066 1.066 0 012.132 0z" fill="url(#ico_type_pickup_svg__paint3_linear_4010_171128)"></path></g><g filter="url(#ico_type_pickup_svg__filter4_i_4010_171128)"><path d="M23.132 8.335a1.066 1.066 0 11-2.132 0 1.066 1.066 0 012.132 0z" fill="url(#ico_type_pickup_svg__paint4_linear_4010_171128)"></path></g><path fill-rule="evenodd" clip-rule="evenodd" d="M22.955 5.856a5.515 5.515 0 00-11.029-.005V8.14l.015.166a.92.92 0 001.823-.165V5.86a3.676 3.676 0 117.354.025v2.256l.014.165a.92.92 0 001.824-.165V5.856z" fill="#515164"></path><defs><linearGradient id="ico_type_pickup_svg__paint0_linear_4010_171128" x1="8.923" y1="4.635" x2="41.127" y2="38.337" gradientUnits="userSpaceOnUse"><stop stop-color="#ADEBFF"></stop><stop offset="1" stop-color="#9671FF"></stop></linearGradient><linearGradient id="ico_type_pickup_svg__paint1_linear_4010_171128" x1="13.232" y1="8.724" x2="15.13" y2="11.022" gradientUnits="userSpaceOnUse"><stop></stop><stop offset="1" stop-opacity="0"></stop></linearGradient><linearGradient id="ico_type_pickup_svg__paint2_linear_4010_171128" x1="22.455" y1="8.779" x2="24.352" y2="11.077" gradientUnits="userSpaceOnUse"><stop></stop><stop offset="1" stop-opacity="0"></stop></linearGradient><linearGradient id="ico_type_pickup_svg__paint3_linear_4010_171128" x1="12.881" y1="7.269" x2="12.881" y2="9.401" gradientUnits="userSpaceOnUse"><stop stop-color="#283F70"></stop><stop offset="1" stop-color="#4C5872"></stop></linearGradient><linearGradient id="ico_type_pickup_svg__paint4_linear_4010_171128" x1="22.066" y1="7.269" x2="22.066" y2="9.401" gradientUnits="userSpaceOnUse"><stop stop-color="#283F70"></stop><stop offset="1" stop-color="#4C5872"></stop></linearGradient><filter id="ico_type_pickup_svg__filter0_f_4010_171128" x="0.283" y="23.938" width="34.317" height="10.724" filterUnits="userSpaceOnUse" color-interpolation-filters="sRGB"><feFlood flood-opacity="0" result="BackgroundImageFix"></feFlood><feBlend in="SourceGraphic" in2="BackgroundImageFix" result="shape"></feBlend><feGaussianBlur stdDeviation="1.609" result="effect1_foregroundBlur_4010_171128"></feGaussianBlur></filter><filter id="ico_type_pickup_svg__filter1_i_4010_171128" x="0.836" y="4.635" width="30.316" height="24.665" filterUnits="userSpaceOnUse" color-interpolation-filters="sRGB"><feFlood flood-opacity="0" result="BackgroundImageFix"></feFlood><feBlend in="SourceGraphic" in2="BackgroundImageFix" result="shape"></feBlend><feColorMatrix in="SourceAlpha" values="0 0 0 0 0 0 0 0 0 0 0 0 0 0 0 0 0 0 127 0" result="hardAlpha"></feColorMatrix><feOffset dx="-3.016"></feOffset><feGaussianBlur stdDeviation="2.513"></feGaussianBlur><feComposite in2="hardAlpha" operator="arithmetic" k2="-1" k3="1"></feComposite><feColorMatrix values="0 0 0 0 0.454902 0 0 0 0 0.262745 0 0 0 0 1 0 0 0 0.1 0"></feColorMatrix><feBlend in2="shape" result="effect1_innerShadow_4010_171128"></feBlend></filter><filter id="ico_type_pickup_svg__filter2_d_4010_171128" x="17.553" y="12.142" width="10.622" height="15.014" filterUnits="userSpaceOnUse" color-interpolation-filters="sRGB"><feFlood flood-opacity="0" result="BackgroundImageFix"></feFlood><feColorMatrix in="SourceAlpha" values="0 0 0 0 0 0 0 0 0 0 0 0 0 0 0 0 0 0 127 0" result="hardAlpha"></feColorMatrix><feOffset dy="2.145"></feOffset><feGaussianBlur stdDeviation="0.536"></feGaussianBlur><feComposite in2="hardAlpha" operator="out"></feComposite><feColorMatrix values="0 0 0 0 0 0 0 0 0 0 0 0 0 0 0 0 0 0 0.1 0"></feColorMatrix><feBlend in2="BackgroundImageFix" result="effect1_dropShadow_4010_171128"></feBlend><feBlend in="SourceGraphic" in2="effect1_dropShadow_4010_171128" result="shape"></feBlend></filter><filter id="ico_type_pickup_svg__filter3_i_4010_171128" x="11.815" y="7.269" width="2.607" height="2.607" filterUnits="userSpaceOnUse" color-interpolation-filters="sRGB"><feFlood flood-opacity="0" result="BackgroundImageFix"></feFlood><feBlend in="SourceGraphic" in2="BackgroundImageFix" result="shape"></feBlend><feColorMatrix in="SourceAlpha" values="0 0 0 0 0 0 0 0 0 0 0 0 0 0 0 0 0 0 127 0" result="hardAlpha"></feColorMatrix><feOffset dx="0.475" dy="0.475"></feOffset><feGaussianBlur stdDeviation="0.238"></feGaussianBlur><feComposite in2="hardAlpha" operator="arithmetic" k2="-1" k3="1"></feComposite><feColorMatrix values="0 0 0 0 0.111406 0 0 0 0 0.167015 0 0 0 0 0.2875 0 0 0 1 0"></feColorMatrix><feBlend in2="shape" result="effect1_innerShadow_4010_171128"></feBlend></filter><filter id="ico_type_pickup_svg__filter4_i_4010_171128" x="21" y="7.269" width="2.607" height="2.607" filterUnits="userSpaceOnUse" color-interpolation-filters="sRGB"><feFlood flood-opacity="0" result="BackgroundImageFix"></feFlood><feBlend in="SourceGraphic" in2="BackgroundImageFix" result="shape"></feBlend><feColorMatrix in="SourceAlpha" values="0 0 0 0 0 0 0 0 0 0 0 0 0 0 0 0 0 0 127 0" result="hardAlpha"></feColorMatrix><feOffset dx="0.475" dy="0.475"></feOffset><feGaussianBlur stdDeviation="0.238"></feGaussianBlur><feComposite in2="hardAlpha" operator="arithmetic" k2="-1" k3="1"></feComposite><feColorMatrix values="0 0 0 0 0.111406 0 0 0 0 0.167015 0 0 0 0 0.2875 0 0 0 1 0">
</feColorMatrix><feBlend in2="shape" result="effect1_innerShadow_4010_171128"></feBlend></filter></defs></svg>